<svg width="43" height="44" viewBox="0 0 43 44" fill="none" xmlns="http://www.w3.org/2000/svg">
<path d="M33.9475 0.259308H8.51968C6.72919 0.259308 5.02446 0.820992 3.58956 1.88348C3.30976 2.09066 3.25089 2.48544 3.45808 2.76524C3.66526 3.04503 4.06004 3.10374 4.33984 2.89672C5.55599 1.99611 7.00137 1.52002 8.51968 1.52002H33.9474C37.8245 1.52002 40.9787 4.67431 40.9787 8.55133V25.2288C40.9787 29.1059 37.8244 32.2601 33.9474 32.2601H23.1999C22.9402 32.2601 22.6893 32.3687 22.5118 32.5577L13.8803 41.7354C13.6939 41.9334 13.4779 41.8772 13.3937 41.8439C13.3094 41.8106 13.1136 41.7036 13.1136 41.4316V33.205C13.1136 32.6841 12.6898 32.2603 12.1689 32.2603H8.51968C4.64258 32.2603 1.48829 29.106 1.48829 25.229V8.55133C1.48829 7.12497 1.9128 5.75178 2.716 4.58035C2.91281 4.29318 2.8397 3.90092 2.55262 3.70403C2.26562 3.50714 1.8731 3.58042 1.6763 3.86742C0.728629 5.24973 0.227661 6.86937 0.227661 8.55133V25.2288C0.227661 29.801 3.94749 33.5208 8.51976 33.5208H11.8529V41.4316C11.8529 42.1349 12.2753 42.7568 12.9292 43.0159C13.1353 43.0975 13.3493 43.1372 13.5608 43.1372C14.0205 43.1372 14.4687 42.9499 14.7986 42.5992L23.3365 33.5209H33.9475C38.5196 33.5209 42.2395 29.8011 42.2395 25.2289V8.55133C42.2395 3.97913 38.5197 0.259308 33.9475 0.259308Z" fill="white"/>
<path d="M30.2881 10.3872C28.1003 8.19934 24.5402 8.19951 22.3522 10.3872L21.2536 11.4859C21.2506 11.4889 21.2416 11.4979 21.2247 11.4979C21.208 11.4979 21.199 11.489 21.1961 11.4859L20.1149 10.4048C17.927 8.21693 14.367 8.21701 12.1791 10.4048C9.99124 12.5926 9.99124 16.1528 12.1791 18.3406L20.3054 26.4669C20.5512 26.7127 20.878 26.848 21.2255 26.848C21.573 26.848 21.8999 26.7126 22.1456 26.4668L26.6114 22.0003C26.8576 21.7541 26.8576 21.355 26.6113 21.1089C26.3651 20.8628 25.9659 20.8627 25.7199 21.109L21.2541 25.5755C21.2512 25.5785 21.2422 25.5873 21.2255 25.5873C21.2087 25.5873 21.1997 25.5785 21.1968 25.5754L13.0705 17.4491C11.3741 15.7526 11.3741 12.9925 13.0705 11.2961C14.7669 9.59966 17.527 9.59982 19.2234 11.2961L20.3045 12.3773C20.5503 12.623 20.8771 12.7585 21.2247 12.7585C21.5723 12.7585 21.899 12.6231 22.1449 12.3773L23.2436 11.2786C24.9403 9.58232 27.7002 9.58232 29.3966 11.2786C31.0929 12.9749 31.0929 15.735 29.3966 17.4316L27.5147 19.3139C27.2684 19.5601 27.2684 19.9593 27.5147 20.2053C27.7609 20.4514 28.1601 20.4515 28.4061 20.2052L30.2881 18.323C32.4759 16.1351 32.4759 12.5751 30.2881 10.3872Z" fill="white"/>
</svg>
