<svg width="15" height="15" viewBox="0 0 15 15" fill="none" xmlns="http://www.w3.org/2000/svg">
<path fill-rule="evenodd" clip-rule="evenodd" d="M6.70008 1.32388C6.46583 1.32388 6.27594 1.13399 6.27594 0.899743C6.27594 0.665499 6.46583 0.475607 6.70008 0.475607L13.721 0.475606C13.8607 0.475606 13.9846 0.543134 14.0619 0.647325C14.1661 0.724602 14.2336 0.848515 14.2336 0.988207L14.2336 8.00914C14.2336 8.24338 14.0437 8.43328 13.8095 8.43328C13.5752 8.43328 13.3853 8.24338 13.3853 8.00914L13.3853 1.76378L0.753374 14.3957C0.587738 14.5614 0.31919 14.5614 0.153554 14.3957C-0.0120818 14.2301 -0.0120819 13.9616 0.153554 13.7959L12.6256 1.32388L6.70008 1.32388Z" fill="white"/>
</svg>
